<svg version="1.1" viewBox="0.0 0.0 715.0708661417323 618.3307086614174" fill="none" stroke="none" stroke-linecap="square" stroke-miterlimit="10" xmlns:xlink="http://www.w3.org/1999/xlink" xmlns="http://www.w3.org/2000/svg"><clipPath id="p.0"><path d="m0 0l715.07086 0l0 618.3307l-715.07086 0l0 -618.3307z" clip-rule="nonzero"/></clipPath><g clip-path="url(#p.0)"><path fill="#000000" fill-opacity="0.0" d="m0 0l715.07086 0l0 618.3307l-715.07086 0z" fill-rule="evenodd"/><path fill="#000000" fill-opacity="0.0" d="m209.27296 339.63016l0 0c0 -6.784088 5.4996033 -12.283691 12.283707 -12.283691l49.13336 0l0 0c3.257843 0 6.382263 1.2941589 8.685913 3.5978088c2.3036194 2.30365 3.5978088 5.4280396 3.5978088 8.685883l0 49.13336c0 6.7841187 -5.4996033 12.283722 -12.283722 12.283722l-49.13336 0c-6.7841034 0 -12.283707 -5.4996033 -12.283707 -12.283722z" fill-rule="evenodd"/><path stroke="#b7b7b7" stroke-width="2.0" stroke-linejoin="round" stroke-linecap="butt" d="m209.27296 339.63016l0 0c0 -6.784088 5.4996033 -12.283691 12.283707 -12.283691l49.13336 0l0 0c3.257843 0 6.382263 1.2941589 8.685913 3.5978088c2.3036194 2.30365 3.5978088 5.4280396 3.5978088 8.685883l0 49.13336c0 6.7841187 -5.4996033 12.283722 -12.283722 12.283722l-49.13336 0c-6.7841034 0 -12.283707 -5.4996033 -12.283707 -12.283722z" fill-rule="evenodd"/><path fill="#000000" fill-opacity="0.0" d="m209.27296 419.07373l0 0c0 -6.784088 5.4996033 -12.283691 12.283707 -12.283691l49.13336 0l0 0c3.257843 0 6.382263 1.2941589 8.685913 3.5978088c2.3036194 2.30365 3.5978088 5.4280396 3.5978088 8.685883l0 49.13336c0 6.7841187 -5.4996033 12.283722 -12.283722 12.283722l-49.13336 0c-6.7841034 0 -12.283707 -5.4996033 -12.283707 -12.283722z" fill-rule="evenodd"/><path stroke="#b7b7b7" stroke-width="2.0" stroke-linejoin="round" stroke-linecap="butt" d="m209.27296 419.07373l0 0c0 -6.784088 5.4996033 -12.283691 12.283707 -12.283691l49.13336 0l0 0c3.257843 0 6.382263 1.2941589 8.685913 3.5978088c2.3036194 2.30365 3.5978088 5.4280396 3.5978088 8.685883l0 49.13336c0 6.7841187 -5.4996033 12.283722 -12.283722 12.283722l-49.13336 0c-6.7841034 0 -12.283707 -5.4996033 -12.283707 -12.283722z" fill-rule="evenodd"/><path fill="#38761c" d="m209.27296 21.855888l0 0c0 -6.7841053 5.4996033 -12.28371 12.283707 -12.28371l49.13336 0l0 0c3.257843 0 6.382263 1.2941723 8.685913 3.5978155c2.3036194 2.3036423 3.5978088 5.428051 3.5978088 8.685894l0 49.13337c0 6.7841034 -5.4996033 12.283707 -12.283722 12.283707l-49.13336 0c-6.7841034 0 -12.283707 -5.4996033 -12.283707 -12.283707z" fill-rule="evenodd"/><path stroke="#38761c" stroke-width="4.0" stroke-linejoin="round" stroke-linecap="butt" d="m209.27296 21.855888l0 0c0 -6.7841053 5.4996033 -12.28371 12.283707 -12.28371l49.13336 0l0 0c3.257843 0 6.382263 1.2941723 8.685913 3.5978155c2.3036194 2.3036423 3.5978088 5.428051 3.5978088 8.685894l0 49.13337c0 6.7841034 -5.4996033 12.283707 -12.283722 12.283707l-49.13336 0c-6.7841034 0 -12.283707 -5.4996033 -12.283707 -12.283707z" fill-rule="evenodd"/><path fill="#000000" fill-opacity="0.0" d="m209.27296 180.74303l0 0c0 -6.7841034 5.4996033 -12.283707 12.283707 -12.283707l49.13336 0l0 0c3.257843 0 6.382263 1.2941742 8.685913 3.5978088c2.3036194 2.30365 3.5978088 5.428055 3.5978088 8.685898l0 49.13336c0 6.7841187 -5.4996033 12.283722 -12.283722 12.283722l-49.13336 0c-6.7841034 0 -12.283707 -5.4996033 -12.283707 -12.283722z" fill-rule="evenodd"/><path stroke="#b7b7b7" stroke-width="2.0" stroke-linejoin="round" stroke-linecap="butt" d="m209.27296 180.74303l0 0c0 -6.7841034 5.4996033 -12.283707 12.283707 -12.283707l49.13336 0l0 0c3.257843 0 6.382263 1.2941742 8.685913 3.5978088c2.3036194 2.30365 3.5978088 5.428055 3.5978088 8.685898l0 49.13336c0 6.7841187 -5.4996033 12.283722 -12.283722 12.283722l-49.13336 0c-6.7841034 0 -12.283707 -5.4996033 -12.283707 -12.283722z" fill-rule="evenodd"/><path fill="#000000" fill-opacity="0.0" d="m209.27296 260.18658l0 0c0 -6.784088 5.4996033 -12.283691 12.283707 -12.283691l49.13336 0l0 0c3.257843 0 6.382263 1.2941742 8.685913 3.5978088c2.3036194 2.30365 3.5978088 5.4280396 3.5978088 8.685883l0 49.133392c0 6.784088 -5.4996033 12.283691 -12.283722 12.283691l-49.13336 0c-6.7841034 0 -12.283707 -5.4996033 -12.283707 -12.283691z" fill-rule="evenodd"/><path stroke="#b7b7b7" stroke-width="2.0" stroke-linejoin="round" stroke-linecap="butt" d="m209.27296 260.18658l0 0c0 -6.784088 5.4996033 -12.283691 12.283707 -12.283691l49.13336 0l0 0c3.257843 0 6.382263 1.2941742 8.685913 3.5978088c2.3036194 2.30365 3.5978088 5.4280396 3.5978088 8.685883l0 49.133392c0 6.784088 -5.4996033 12.283691 -12.283722 12.283691l-49.13336 0c-6.7841034 0 -12.283707 -5.4996033 -12.283707 -12.283691z" fill-rule="evenodd"/><path fill="#38761c" d="m292.54593 339.63016l0 0c0 -6.784088 5.4996033 -12.283691 12.283722 -12.283691l49.13336 0l0 0c3.257843 0 6.382263 1.2941589 8.685883 3.5978088c2.30365 2.30365 3.5978088 5.4280396 3.5978088 8.685883l0 49.13336c0 6.7841187 -5.4996033 12.283722 -12.283691 12.283722l-49.13336 0c-6.7841187 0 -12.283722 -5.4996033 -12.283722 -12.283722z" fill-rule="evenodd"/><path stroke="#38761c" stroke-width="4.0" stroke-linejoin="round" stroke-linecap="butt" d="m292.54593 339.63016l0 0c0 -6.784088 5.4996033 -12.283691 12.283722 -12.283691l49.13336 0l0 0c3.257843 0 6.382263 1.2941589 8.685883 3.5978088c2.30365 2.30365 3.5978088 5.4280396 3.5978088 8.685883l0 49.13336c0 6.7841187 -5.4996033 12.283722 -12.283691 12.283722l-49.13336 0c-6.7841187 0 -12.283722 -5.4996033 -12.283722 -12.283722z" fill-rule="evenodd"/><path fill="#000000" fill-opacity="0.0" d="m292.54593 419.07373l0 0c0 -6.784088 5.4996033 -12.283691 12.283722 -12.283691l49.13336 0l0 0c3.257843 0 6.382263 1.2941589 8.685883 3.5978088c2.30365 2.30365 3.5978088 5.4280396 3.5978088 8.685883l0 49.13336c0 6.7841187 -5.4996033 12.283722 -12.283691 12.283722l-49.13336 0c-6.7841187 0 -12.283722 -5.4996033 -12.283722 -12.283722z" fill-rule="evenodd"/><path stroke="#b7b7b7" stroke-width="2.0" stroke-linejoin="round" stroke-linecap="butt" d="m292.54593 419.07373l0 0c0 -6.784088 5.4996033 -12.283691 12.283722 -12.283691l49.13336 0l0 0c3.257843 0 6.382263 1.2941589 8.685883 3.5978088c2.30365 2.30365 3.5978088 5.4280396 3.5978088 8.685883l0 49.13336c0 6.7841187 -5.4996033 12.283722 -12.283691 12.283722l-49.13336 0c-6.7841187 0 -12.283722 -5.4996033 -12.283722 -12.283722z" fill-rule="evenodd"/><path fill="#000000" fill-opacity="0.0" d="m292.54593 20.895258l0 0c0 -6.7841053 5.4996033 -12.28371 12.283722 -12.28371l49.13336 0l0 0c3.257843 0 6.382263 1.2941732 8.685883 3.5978155c2.30365 2.3036423 3.5978088 5.428053 3.5978088 8.685894l0 49.13337c0 6.7841034 -5.4996033 12.283707 -12.283691 12.283707l-49.13336 0c-6.7841187 0 -12.283722 -5.4996033 -12.283722 -12.283707z" fill-rule="evenodd"/><path stroke="#b7b7b7" stroke-width="2.0" stroke-linejoin="round" stroke-linecap="butt" d="m292.54593 20.895258l0 0c0 -6.7841053 5.4996033 -12.28371 12.283722 -12.28371l49.13336 0l0 0c3.257843 0 6.382263 1.2941732 8.685883 3.5978155c2.30365 2.3036423 3.5978088 5.428053 3.5978088 8.685894l0 49.13337c0 6.7841034 -5.4996033 12.283707 -12.283691 12.283707l-49.13336 0c-6.7841187 0 -12.283722 -5.4996033 -12.283722 -12.283707z" fill-rule="evenodd"/><path fill="#000000" fill-opacity="0.0" d="m292.54593 100.33883l0 0c0 -6.7841034 5.4996033 -12.283714 12.283722 -12.283714l49.13336 0l0 0c3.257843 0 6.382263 1.2941742 8.685883 3.5978165c2.30365 2.3036423 3.5978088 5.428055 3.5978088 8.685898l0 49.13337c0 6.7841034 -5.4996033 12.283707 -12.283691 12.283707l-49.13336 0c-6.7841187 0 -12.283722 -5.4996033 -12.283722 -12.283707z" fill-rule="evenodd"/><path stroke="#b7b7b7" stroke-width="2.0" stroke-linejoin="round" stroke-linecap="butt" d="m292.54593 100.33883l0 0c0 -6.7841034 5.4996033 -12.283714 12.283722 -12.283714l49.13336 0l0 0c3.257843 0 6.382263 1.2941742 8.685883 3.5978165c2.30365 2.3036423 3.5978088 5.428055 3.5978088 8.685898l0 49.13337c0 6.7841034 -5.4996033 12.283707 -12.283691 12.283707l-49.13336 0c-6.7841187 0 -12.283722 -5.4996033 -12.283722 -12.283707z" fill-rule="evenodd"/><path fill="#000000" fill-opacity="0.0" d="m292.54593 180.74303l0 0c0 -6.7841034 5.4996033 -12.283707 12.283722 -12.283707l49.13336 0l0 0c3.257843 0 6.382263 1.2941742 8.685883 3.5978088c2.30365 2.30365 3.5978088 5.428055 3.5978088 8.685898l0 49.13336c0 6.7841187 -5.4996033 12.283722 -12.283691 12.283722l-49.13336 0c-6.7841187 0 -12.283722 -5.4996033 -12.283722 -12.283722z" fill-rule="evenodd"/><path stroke="#b7b7b7" stroke-width="2.0" stroke-linejoin="round" stroke-linecap="butt" d="m292.54593 180.74303l0 0c0 -6.7841034 5.4996033 -12.283707 12.283722 -12.283707l49.13336 0l0 0c3.257843 0 6.382263 1.2941742 8.685883 3.5978088c2.30365 2.30365 3.5978088 5.428055 3.5978088 8.685898l0 49.13336c0 6.7841187 -5.4996033 12.283722 -12.283691 12.283722l-49.13336 0c-6.7841187 0 -12.283722 -5.4996033 -12.283722 -12.283722z" fill-rule="evenodd"/><path fill="#000000" fill-opacity="0.0" d="m292.54593 260.18658l0 0c0 -6.784088 5.4996033 -12.283691 12.283722 -12.283691l49.13336 0l0 0c3.257843 0 6.382263 1.2941742 8.685883 3.5978088c2.30365 2.30365 3.5978088 5.4280396 3.5978088 8.685883l0 49.133392c0 6.784088 -5.4996033 12.283691 -12.283691 12.283691l-49.13336 0c-6.7841187 0 -12.283722 -5.4996033 -12.283722 -12.283691z" fill-rule="evenodd"/><path stroke="#b7b7b7" stroke-width="2.0" stroke-linejoin="round" stroke-linecap="butt" d="m292.54593 260.18658l0 0c0 -6.784088 5.4996033 -12.283691 12.283722 -12.283691l49.13336 0l0 0c3.257843 0 6.382263 1.2941742 8.685883 3.5978088c2.30365 2.30365 3.5978088 5.4280396 3.5978088 8.685883l0 49.133392c0 6.784088 -5.4996033 12.283691 -12.283691 12.283691l-49.13336 0c-6.7841187 0 -12.283722 -5.4996033 -12.283722 -12.283691z" fill-rule="evenodd"/><path fill="#000000" fill-opacity="0.0" d="m375.8189 339.63016l0 0c0 -6.784088 5.4996033 -12.283691 12.283691 -12.283691l49.13336 0l0 0c3.257843 0 6.382263 1.2941589 8.685913 3.5978088c2.30365 2.30365 3.5978088 5.4280396 3.5978088 8.685883l0 49.13336c0 6.7841187 -5.4996033 12.283722 -12.283722 12.283722l-49.13336 0c-6.784088 0 -12.283691 -5.4996033 -12.283691 -12.283722z" fill-rule="evenodd"/><path stroke="#b7b7b7" stroke-width="2.0" stroke-linejoin="round" stroke-linecap="butt" d="m375.8189 339.63016l0 0c0 -6.784088 5.4996033 -12.283691 12.283691 -12.283691l49.13336 0l0 0c3.257843 0 6.382263 1.2941589 8.685913 3.5978088c2.30365 2.30365 3.5978088 5.4280396 3.5978088 8.685883l0 49.13336c0 6.7841187 -5.4996033 12.283722 -12.283722 12.283722l-49.13336 0c-6.784088 0 -12.283691 -5.4996033 -12.283691 -12.283722z" fill-rule="evenodd"/><path fill="#000000" fill-opacity="0.0" d="m375.8189 419.07373l0 0c0 -6.784088 5.4996033 -12.283691 12.283691 -12.283691l49.13336 0l0 0c3.257843 0 6.382263 1.2941589 8.685913 3.5978088c2.30365 2.30365 3.5978088 5.4280396 3.5978088 8.685883l0 49.13336c0 6.7841187 -5.4996033 12.283722 -12.283722 12.283722l-49.13336 0c-6.784088 0 -12.283691 -5.4996033 -12.283691 -12.283722z" fill-rule="evenodd"/><path stroke="#b7b7b7" stroke-width="2.0" stroke-linejoin="round" stroke-linecap="butt" d="m375.8189 419.07373l0 0c0 -6.784088 5.4996033 -12.283691 12.283691 -12.283691l49.13336 0l0 0c3.257843 0 6.382263 1.2941589 8.685913 3.5978088c2.30365 2.30365 3.5978088 5.4280396 3.5978088 8.685883l0 49.13336c0 6.7841187 -5.4996033 12.283722 -12.283722 12.283722l-49.13336 0c-6.784088 0 -12.283691 -5.4996033 -12.283691 -12.283722z" fill-rule="evenodd"/><path fill="#000000" fill-opacity="0.0" d="m375.8189 20.895258l0 0c0 -6.7841053 5.4996033 -12.28371 12.283691 -12.28371l49.13336 0l0 0c3.257843 0 6.382263 1.2941732 8.685913 3.5978155c2.30365 2.3036423 3.5978088 5.428053 3.5978088 8.685894l0 49.13337c0 6.7841034 -5.4996033 12.283707 -12.283722 12.283707l-49.13336 0c-6.784088 0 -12.283691 -5.4996033 -12.283691 -12.283707z" fill-rule="evenodd"/><path stroke="#b7b7b7" stroke-width="2.0" stroke-linejoin="round" stroke-linecap="butt" d="m375.8189 20.895258l0 0c0 -6.7841053 5.4996033 -12.28371 12.283691 -12.28371l49.13336 0l0 0c3.257843 0 6.382263 1.2941732 8.685913 3.5978155c2.30365 2.3036423 3.5978088 5.428053 3.5978088 8.685894l0 49.13337c0 6.7841034 -5.4996033 12.283707 -12.283722 12.283707l-49.13336 0c-6.784088 0 -12.283691 -5.4996033 -12.283691 -12.283707z" fill-rule="evenodd"/><path fill="#000000" fill-opacity="0.0" d="m375.8189 100.33883l0 0c0 -6.7841034 5.4996033 -12.283714 12.283691 -12.283714l49.13336 0l0 0c3.257843 0 6.382263 1.2941742 8.685913 3.5978165c2.30365 2.3036423 3.5978088 5.428055 3.5978088 8.685898l0 49.13337c0 6.7841034 -5.4996033 12.283707 -12.283722 12.283707l-49.13336 0c-6.784088 0 -12.283691 -5.4996033 -12.283691 -12.283707z" fill-rule="evenodd"/><path stroke="#b7b7b7" stroke-width="2.0" stroke-linejoin="round" stroke-linecap="butt" d="m375.8189 100.33883l0 0c0 -6.7841034 5.4996033 -12.283714 12.283691 -12.283714l49.13336 0l0 0c3.257843 0 6.382263 1.2941742 8.685913 3.5978165c2.30365 2.3036423 3.5978088 5.428055 3.5978088 8.685898l0 49.13337c0 6.7841034 -5.4996033 12.283707 -12.283722 12.283707l-49.13336 0c-6.784088 0 -12.283691 -5.4996033 -12.283691 -12.283707z" fill-rule="evenodd"/><path fill="#000000" fill-opacity="0.0" d="m375.8189 180.74303l0 0c0 -6.7841034 5.4996033 -12.283707 12.283691 -12.283707l49.13336 0l0 0c3.257843 0 6.382263 1.2941742 8.685913 3.5978088c2.30365 2.30365 3.5978088 5.428055 3.5978088 8.685898l0 49.13336c0 6.7841187 -5.4996033 12.283722 -12.283722 12.283722l-49.13336 0c-6.784088 0 -12.283691 -5.4996033 -12.283691 -12.283722z" fill-rule="evenodd"/><path stroke="#b7b7b7" stroke-width="2.0" stroke-linejoin="round" stroke-linecap="butt" d="m375.8189 180.74303l0 0c0 -6.7841034 5.4996033 -12.283707 12.283691 -12.283707l49.13336 0l0 0c3.257843 0 6.382263 1.2941742 8.685913 3.5978088c2.30365 2.30365 3.5978088 5.428055 3.5978088 8.685898l0 49.13336c0 6.7841187 -5.4996033 12.283722 -12.283722 12.283722l-49.13336 0c-6.784088 0 -12.283691 -5.4996033 -12.283691 -12.283722z" fill-rule="evenodd"/><path fill="#000000" fill-opacity="0.0" d="m459.09186 339.63016l0 0c0 -6.784088 5.4996033 -12.283691 12.283722 -12.283691l49.13333 0l0 0c3.2578735 0 6.382263 1.2941589 8.685913 3.5978088c2.30365 2.30365 3.5978394 5.4280396 3.5978394 8.685883l0 49.13336c0 6.7841187 -5.499634 12.283722 -12.283752 12.283722l-49.13333 0c-6.7841187 0 -12.283722 -5.4996033 -12.283722 -12.283722z" fill-rule="evenodd"/><path stroke="#b7b7b7" stroke-width="2.0" stroke-linejoin="round" stroke-linecap="butt" d="m459.09186 339.63016l0 0c0 -6.784088 5.4996033 -12.283691 12.283722 -12.283691l49.13333 0l0 0c3.2578735 0 6.382263 1.2941589 8.685913 3.5978088c2.30365 2.30365 3.5978394 5.4280396 3.5978394 8.685883l0 49.13336c0 6.7841187 -5.499634 12.283722 -12.283752 12.283722l-49.13333 0c-6.7841187 0 -12.283722 -5.4996033 -12.283722 -12.283722z" fill-rule="evenodd"/><path fill="#000000" fill-opacity="0.0" d="m459.09186 20.895258l0 0c0 -6.7841053 5.4996033 -12.28371 12.283722 -12.28371l49.13333 0l0 0c3.2578735 0 6.382263 1.2941732 8.685913 3.5978155c2.30365 2.3036423 3.5978394 5.428053 3.5978394 8.685894l0 49.13337c0 6.7841034 -5.499634 12.283707 -12.283752 12.283707l-49.13333 0c-6.7841187 0 -12.283722 -5.4996033 -12.283722 -12.283707z" fill-rule="evenodd"/><path stroke="#b7b7b7" stroke-width="2.0" stroke-linejoin="round" stroke-linecap="butt" d="m459.09186 20.895258l0 0c0 -6.7841053 5.4996033 -12.28371 12.283722 -12.28371l49.13333 0l0 0c3.2578735 0 6.382263 1.2941732 8.685913 3.5978155c2.30365 2.3036423 3.5978394 5.428053 3.5978394 8.685894l0 49.13337c0 6.7841034 -5.499634 12.283707 -12.283752 12.283707l-49.13333 0c-6.7841187 0 -12.283722 -5.4996033 -12.283722 -12.283707z" fill-rule="evenodd"/><path fill="#000000" fill-opacity="0.0" d="m459.09186 100.33883l0 0c0 -6.7841034 5.4996033 -12.283714 12.283722 -12.283714l49.13333 0l0 0c3.2578735 0 6.382263 1.2941742 8.685913 3.5978165c2.30365 2.3036423 3.5978394 5.428055 3.5978394 8.685898l0 49.13337c0 6.7841034 -5.499634 12.283707 -12.283752 12.283707l-49.13333 0c-6.7841187 0 -12.283722 -5.4996033 -12.283722 -12.283707z" fill-rule="evenodd"/><path stroke="#b7b7b7" stroke-width="2.0" stroke-linejoin="round" stroke-linecap="butt" d="m459.09186 100.33883l0 0c0 -6.7841034 5.4996033 -12.283714 12.283722 -12.283714l49.13333 0l0 0c3.2578735 0 6.382263 1.2941742 8.685913 3.5978165c2.30365 2.3036423 3.5978394 5.428055 3.5978394 8.685898l0 49.13337c0 6.7841034 -5.499634 12.283707 -12.283752 12.283707l-49.13333 0c-6.7841187 0 -12.283722 -5.4996033 -12.283722 -12.283707z" fill-rule="evenodd"/><path fill="#000000" fill-opacity="0.0" d="m459.09186 260.18658l0 0c0 -6.784088 5.4996033 -12.283691 12.283722 -12.283691l49.13333 0l0 0c3.2578735 0 6.382263 1.2941742 8.685913 3.5978088c2.30365 2.30365 3.5978394 5.4280396 3.5978394 8.685883l0 49.133392c0 6.784088 -5.499634 12.283691 -12.283752 12.283691l-49.13333 0c-6.7841187 0 -12.283722 -5.4996033 -12.283722 -12.283691z" fill-rule="evenodd"/><path stroke="#b7b7b7" stroke-width="2.0" stroke-linejoin="round" stroke-linecap="butt" d="m459.09186 260.18658l0 0c0 -6.784088 5.4996033 -12.283691 12.283722 -12.283691l49.13333 0l0 0c3.2578735 0 6.382263 1.2941742 8.685913 3.5978088c2.30365 2.30365 3.5978394 5.4280396 3.5978394 8.685883l0 49.133392c0 6.784088 -5.499634 12.283691 -12.283752 12.283691l-49.13333 0c-6.7841187 0 -12.283722 -5.4996033 -12.283722 -12.283691z" fill-rule="evenodd"/><path fill="#38761c" d="m375.8189 260.18658l0 0c0 -6.784088 5.4996033 -12.283691 12.283691 -12.283691l49.13336 0l0 0c3.257843 0 6.382263 1.2941742 8.685913 3.5978088c2.30365 2.30365 3.5978088 5.4280396 3.5978088 8.685883l0 49.133392c0 6.784088 -5.4996033 12.283691 -12.283722 12.283691l-49.13336 0c-6.784088 0 -12.283691 -5.4996033 -12.283691 -12.283691z" fill-rule="evenodd"/><path stroke="#38761c" stroke-width="4.0" stroke-linejoin="round" stroke-linecap="butt" d="m375.8189 260.18658l0 0c0 -6.784088 5.4996033 -12.283691 12.283691 -12.283691l49.13336 0l0 0c3.257843 0 6.382263 1.2941742 8.685913 3.5978088c2.30365 2.30365 3.5978088 5.4280396 3.5978088 8.685883l0 49.133392c0 6.784088 -5.4996033 12.283691 -12.283722 12.283691l-49.13336 0c-6.784088 0 -12.283691 -5.4996033 -12.283691 -12.283691z" fill-rule="evenodd"/><path fill="#38761c" d="m459.09186 180.26271l0 0c0 -6.7841034 5.4996033 -12.283707 12.283722 -12.283707l49.13333 0l0 0c3.2578735 0 6.382263 1.2941742 8.685913 3.5978088c2.30365 2.30365 3.5978394 5.428055 3.5978394 8.685898l0 49.13336c0 6.7841187 -5.499634 12.283722 -12.283752 12.283722l-49.13333 0c-6.7841187 0 -12.283722 -5.4996033 -12.283722 -12.283722z" fill-rule="evenodd"/><path stroke="#38761c" stroke-width="4.0" stroke-linejoin="round" stroke-linecap="butt" d="m459.09186 180.26271l0 0c0 -6.7841034 5.4996033 -12.283707 12.283722 -12.283707l49.13333 0l0 0c3.2578735 0 6.382263 1.2941742 8.685913 3.5978088c2.30365 2.30365 3.5978394 5.428055 3.5978394 8.685898l0 49.13336c0 6.7841187 -5.499634 12.283722 -12.283752 12.283722l-49.13333 0c-6.7841187 0 -12.283722 -5.4996033 -12.283722 -12.283722z" fill-rule="evenodd"/><path fill="#000000" fill-opacity="0.0" d="m209.27296 101.29946l0 0c0 -6.784111 5.4996033 -12.283714 12.283707 -12.283714l49.13336 0l0 0c3.257843 0 6.382263 1.2941742 8.685913 3.5978165c2.3036194 2.3036423 3.5978088 5.428055 3.5978088 8.685898l0 49.13337c0 6.7841034 -5.4996033 12.283707 -12.283722 12.283707l-49.13336 0c-6.7841034 0 -12.283707 -5.4996033 -12.283707 -12.283707z" fill-rule="evenodd"/><path stroke="#b7b7b7" stroke-width="2.0" stroke-linejoin="round" stroke-linecap="butt" d="m209.27296 101.29946l0 0c0 -6.784111 5.4996033 -12.283714 12.283707 -12.283714l49.13336 0l0 0c3.257843 0 6.382263 1.2941742 8.685913 3.5978165c2.3036194 2.3036423 3.5978088 5.428055 3.5978088 8.685898l0 49.13337c0 6.7841034 -5.4996033 12.283707 -12.283722 12.283707l-49.13336 0c-6.7841034 0 -12.283707 -5.4996033 -12.283707 -12.283707z" fill-rule="evenodd"/><path fill="#000000" fill-opacity="0.0" d="m2.5249343 560.895l0 -226.83466l52.62992 0l0 226.83466z" fill-rule="evenodd"/><path fill="#000000" d="m39.684933 549.7544l-20.999998 0l0 -6.796875q0 -3.859375 0.328125 -5.046875q0.46875 -1.796875 2.046875 -3.015625q1.578125 -1.21875 4.09375 -1.21875q1.921875 0 3.25 0.703125q1.3125 0.703125 2.0625 1.78125q0.75 1.078125 1.0 2.203125q0.296875 1.515625 0.296875 4.390625l0 2.765625l7.921873 0l0 4.234375zm-17.437498 -4.234375l5.953125 0l0 -2.3125q0 -2.515625 -0.328125 -3.359375q-0.328125 -0.84375 -1.03125 -1.3125q-0.703125 -0.484375 -1.640625 -0.484375q-1.140625 0 -1.875 0.671875q-0.75 0.671875 -0.9375 1.703125q-0.140625 0.75 -0.140625 3.046875l0 2.046875zm17.437498 -19.13977l0 4.015625l-15.203123 0l0 -3.734375l2.15625 0q-1.53125 -0.953125 -2.015625 -1.71875q-0.484375 -0.765625 -0.484375 -1.75q0 -1.375 0.75 -2.640625l3.515625 1.234375q-0.65625 1.03125 -0.65625 1.890625q0 0.859375 0.46875 1.453125q0.453125 0.578125 1.671875 0.921875q1.21875 0.328125 5.093748 0.328125l4.703125 0zm-4.84375 -16.366455l0.671875 -4.015625q2.203125 0.765625 3.359375 2.4375q1.15625 1.671875 1.15625 4.171875q0 3.96875 -2.59375 5.875q-2.078125 1.5 -5.234375 1.5q-3.781248 0 -5.921873 -1.96875q-2.140625 -1.984375 -2.140625 -5.0q0 -3.390625 2.25 -5.34375q2.234375 -1.96875 6.859373 -1.890625l0 10.078125q1.78125 -0.03125 2.78125 -0.953125q1.0 -0.9375 1.0 -2.328125q0 -0.953125 -0.515625 -1.59375q-0.515625 -0.640625 -1.671875 -0.96875zm-4.062498 -0.234375q-1.75 0.046875 -2.65625 0.90625q-0.90625 0.859375 -0.90625 2.09375q0 1.3125 0.953125 2.171875q0.96875 0.859375 2.609375 0.84375l0 -6.015625zm4.562498 -5.857788l-0.609375 -4.03125q1.171875 -0.265625 1.78125 -1.046875q0.609375 -0.796875 0.609375 -2.203125q0 -1.5625 -0.578125 -2.359375q-0.390625 -0.53125 -1.0625 -0.53125q-0.46875 0 -0.765625 0.296875q-0.28125 0.296875 -0.53125 1.34375q-1.078125 4.859375 -1.953125 6.171875q-1.2343731 1.796875 -3.437498 1.796875q-1.96875 0 -3.3125 -1.5625q-1.34375 -1.5625 -1.34375 -4.828125q0 -3.125 1.015625 -4.640625q1.015625 -1.53125 3.0 -2.09375l0.703125 3.796875q-0.890625 0.234375 -1.359375 0.921875q-0.46875 0.671875 -0.46875 1.9375q0 1.59375 0.4375 2.28125q0.3125 0.453125 0.8125 0.453125q0.4375 0 0.734375 -0.40625q0.40625 -0.53125 1.140625 -3.75q0.71875 -3.21875 1.78125 -4.5q1.0781231 -1.25 2.999998 -1.25q2.09375 0 3.59375 1.75q1.5 1.734375 1.5 5.171875q0 3.09375 -1.25 4.90625q-1.265625 1.8125 -3.4375 2.375zm0 -16.310913l-0.609375 -4.03125q1.171875 -0.265625 1.78125 -1.046875q0.609375 -0.796875 0.609375 -2.203125q0 -1.5625 -0.578125 -2.359375q-0.390625 -0.53125 -1.0625 -0.53125q-0.46875 0 -0.765625 0.296875q-0.28125 0.296875 -0.53125 1.34375q-1.078125 4.859375 -1.953125 6.171875q-1.2343731 1.796875 -3.437498 1.796875q-1.96875 0 -3.3125 -1.5625q-1.34375 -1.5625 -1.34375 -4.828125q0 -3.125 1.015625 -4.640625q1.015625 -1.53125 3.0 -2.09375l0.703125 3.796875q-0.890625 0.234375 -1.359375 0.921875q-0.46875 0.671875 -0.46875 1.9375q0 1.59375 0.4375 2.28125q0.3125 0.453125 0.8125 0.453125q0.4375 0 0.734375 -0.40625q0.40625 -0.53125 1.140625 -3.75q0.71875 -3.21875 1.78125 -4.5q1.0781231 -1.25 2.999998 -1.25q2.09375 0 3.59375 1.75q1.5 1.734375 1.5 5.171875q0 3.09375 -1.25 4.90625q-1.265625 1.8125 -3.4375 2.375zm-0.5 -26.529663l0.671875 -4.015625q2.203125 0.765625 3.359375 2.4375q1.15625 1.671875 1.15625 4.171875q0 3.96875 -2.59375 5.875q-2.078125 1.5 -5.234375 1.5q-3.781248 0 -5.921873 -1.96875q-2.140625 -1.984375 -2.140625 -5.0q0 -3.390625 2.25 -5.34375q2.234375 -1.96875 6.859373 -1.890625l0 10.078125q1.78125 -0.03125 2.78125 -0.953125q1.0 -0.9375 1.0 -2.328125q0 -0.953125 -0.515625 -1.59375q-0.515625 -0.640625 -1.671875 -0.96875zm-4.062498 -0.234375q-1.75 0.046875 -2.65625 0.90625q-0.90625 0.859375 -0.90625 2.09375q0 1.3125 0.953125 2.171875q0.96875 0.859375 2.609375 0.84375l0 -6.015625zm8.906248 -21.217163l0 3.734375l-2.234375 0q1.296875 0.921875 1.9375 2.203125q0.640625 1.265625 0.640625 2.546875q0 2.625 -2.109375 4.5q-2.109375 1.859375 -5.890625 1.859375q-3.874998 0 -5.874998 -1.8125q-2.015625 -1.828125 -2.015625 -4.609375q0 -2.546875 2.109375 -4.40625l-7.5625 0l0 -4.015625l20.999998 0zm-7.937498 10.734375q2.437498 0 3.531248 -0.671875q1.578125 -0.96875 1.578125 -2.71875q0 -1.390625 -1.1875 -2.359375q-1.1875 -0.984375 -3.53125 -0.984375q-2.624998 0 -3.765623 0.953125q-1.15625 0.9375 -1.15625 2.421875q0 1.421875 1.140625 2.390625q1.125 0.96875 3.390625 0.96875zm7.937498 -22.922485l-20.999998 0l0 -4.125l14.031248 -8.59375l-14.031248 0l0 -3.9375l20.999998 0l0 4.25l-13.687498 8.46875l13.687498 0l0 3.9375zm-7.812498 -20.17984q-2.015625 0 -3.890625 -0.984375q-1.875 -1.0 -2.859375 -2.8125q-0.984375 -1.8125 -0.984375 -4.03125q0 -3.453125 2.25 -5.65625q2.234375 -2.21875 5.656248 -2.21875q3.4375 0 5.71875 2.234375q2.265625 2.21875 2.265625 5.609375q0 2.078125 -0.9375 3.984375q-0.953125 1.890625 -2.78125 2.890625q-1.828125 0.984375 -4.437498 0.984375zm0.2031231 -4.125q2.265625 0 3.46875 -1.078125q1.203125 -1.078125 1.203125 -2.640625q0 -1.578125 -1.203125 -2.640625q-1.203125 -1.078125 -3.484375 -1.078125q-2.234373 0 -3.437498 1.078125q-1.203125 1.0625 -1.203125 2.640625q0 1.5625 1.203125 2.640625q1.203125 1.078125 3.453123 1.078125zm-7.593748 -21.696045l3.203125 0l0 2.75l6.124998 0q1.859375 0 2.171875 -0.078125q0.3125 -0.078125 0.515625 -0.359375q0.1875 -0.28125 0.1875 -0.6875q0 -0.546875 -0.375 -1.609375l3.125 -0.34375q0.59375 1.40625 0.59375 3.171875q0 1.09375 -0.359375 1.96875q-0.375 0.875 -0.953125 1.28125q-0.578125 0.40625 -1.5625 0.5625q-0.703125 0.125 -2.84375 0.125l-6.624998 0l0 1.859375l-3.203125 0l0 -1.859375l-3.03125 0l-2.34375 -4.03125l5.375 0l0 -2.75zm10.359373 -11.5946045l0.671875 -4.015625q2.203125 0.765625 3.359375 2.4375q1.15625 1.671875 1.15625 4.171875q0 3.96875 -2.59375 5.875q-2.078125 1.5 -5.234375 1.5q-3.781248 0 -5.921873 -1.96875q-2.140625 -1.984375 -2.140625 -5.0q0 -3.390625 2.25 -5.34375q2.234375 -1.96875 6.859373 -1.890625l0 10.078125q1.78125 -0.03125 2.78125 -0.953125q1.0 -0.9375 1.0 -2.328125q0 -0.953125 -0.515625 -1.59375q-0.515625 -0.640625 -1.671875 -0.96875zm-4.062498 -0.234375q-1.75 0.046875 -2.65625 0.90625q-0.90625 0.859375 -0.90625 2.09375q0 1.3125 0.953125 2.171875q0.96875 0.859375 2.609375 0.84375l0 -6.015625zm4.562498 -5.857788l-0.609375 -4.03125q1.171875 -0.265625 1.78125 -1.046875q0.609375 -0.796875 0.609375 -2.203125q0 -1.5625 -0.578125 -2.359375q-0.390625 -0.53125 -1.0625 -0.53125q-0.46875 0 -0.765625 0.296875q-0.28125 0.296875 -0.53125 1.34375q-1.078125 4.859375 -1.953125 6.171875q-1.2343731 1.796875 -3.437498 1.796875q-1.96875 0 -3.3125 -1.5625q-1.34375 -1.5625 -1.34375 -4.828125q0 -3.125 1.015625 -4.640625q1.015625 -1.53125 3.0 -2.09375l0.703125 3.796875q-0.890625 0.234375 -1.359375 0.921875q-0.46875 0.671875 -0.46875 1.9375q0 1.59375 0.4375 2.28125q0.3125 0.453125 0.8125 0.453125q0.4375 0 0.734375 -0.40625q0.40625 -0.53125 1.140625 -3.75q0.71875 -3.21875 1.78125 -4.5q1.0781231 -1.25 2.999998 -1.25q2.09375 0 3.59375 1.75q1.5 1.734375 1.5 5.171875q0 3.09375 -1.25 4.90625q-1.265625 1.8125 -3.4375 2.375z" fill-rule="nonzero"/><path fill="#000000" fill-opacity="0.0" d="m156.64305 560.895l0 -288.09448l52.629913 0l0 288.09448z" fill-rule="evenodd"/><path fill="#000000" d="m186.97491 550.8325l-0.40625 -4.125q2.078125 -0.375 3.0625 -1.5q0.96875 -1.140625 0.96875 -3.078125q0 -2.046875 -0.859375 -3.078125q-0.875 -1.046875 -2.03125 -1.046875q-0.75 0 -1.265625 0.4375q-0.53125 0.4375 -0.921875 1.53125q-0.25 0.734375 -0.90625 3.390625q-0.84375 3.40625 -2.078125 4.78125q-1.734375 1.9375 -4.234375 1.9375q-1.59375 0 -2.984375 -0.90625q-1.40625 -0.921875 -2.140625 -2.625q-0.734375 -1.71875 -0.734375 -4.140625q0 -3.953125 1.734375 -5.9375q1.734375 -2.0 4.625 -2.109375l0.1875 4.234375q-1.609375 0.28125 -2.3125 1.171875q-0.71875 0.890625 -0.71875 2.6875q0 1.84375 0.765625 2.890625q0.484375 0.671875 1.296875 0.671875q0.75 0 1.28125 -0.625q0.671875 -0.796875 1.40625 -3.890625q0.71875 -3.09375 1.5 -4.578125q0.78125 -1.484375 2.140625 -2.3125q1.34375 -0.84375 3.34375 -0.84375q1.796875 0 3.375 1.0q1.578125 1.0 2.34375 2.84375q0.765625 1.828125 0.765625 4.5625q0 3.96875 -1.84375 6.109375q-1.84375 2.140625 -5.359375 2.546875zm1.984375 -29.405396l0.671875 -4.015625q2.203125 0.765625 3.359375 2.4375q1.15625 1.671875 1.15625 4.171875q0 3.96875 -2.59375 5.875q-2.078125 1.5 -5.234375 1.5q-3.78125 0 -5.921875 -1.96875q-2.140625 -1.984375 -2.140625 -5.0q0 -3.390625 2.25 -5.34375q2.234375 -1.96875 6.859375 -1.890625l0 10.078125q1.78125 -0.03125 2.78125 -0.953125q1.0 -0.9375 1.0 -2.328125q0 -0.953125 -0.515625 -1.59375q-0.515625 -0.640625 -1.671875 -0.96875zm-4.0625 -0.234375q-1.75 0.046875 -2.65625 0.90625q-0.90625 0.859375 -0.90625 2.09375q0 1.3125 0.953125 2.171875q0.96875 0.859375 2.609375 0.84375l0 -6.015625zm14.6875 -17.217163l-7.640625 0q1.015625 0.796875 1.609375 1.96875q0.59375 1.171875 0.59375 2.53125q0 2.59375 -1.953125 4.265625q-2.265625 1.984375 -6.171875 1.984375q-3.65625 0 -5.703125 -1.859375q-2.0625 -1.859375 -2.0625 -4.609375q0 -1.515625 0.640625 -2.625q0.640625 -1.109375 1.953125 -1.96875l-2.25 0l0 -3.703125l20.984375 0l0 4.015625zm-13.578125 -0.125q-2.328125 0 -3.46875 0.953125q-1.140625 0.953125 -1.140625 2.390625q0 1.453125 1.171875 2.4375q1.15625 0.984375 3.671875 0.984375q2.5 0 3.625 -0.9375q1.109375 -0.953125 1.109375 -2.34375q0 -1.390625 -1.25 -2.4375q-1.25 -1.046875 -3.71875 -1.046875zm7.796875 -17.852295l-2.28125 0q1.21875 0.828125 1.921875 2.1875q0.703125 1.34375 0.703125 2.84375q0 1.53125 -0.671875 2.75q-0.671875 1.21875 -1.890625 1.765625q-1.21875 0.546875 -3.359375 0.546875l-9.625 0l0 -4.03125l6.984375 0q3.203125 0 3.9375 -0.21875q0.71875 -0.21875 1.140625 -0.796875q0.421875 -0.59375 0.421875 -1.5q0 -1.03125 -0.5625 -1.84375q-0.578125 -0.828125 -1.40625 -1.125q-0.84375 -0.296875 -4.109375 -0.296875l-6.40625 0l0 -4.03125l15.203125 0l0 3.75zm-4.84375 -16.71167l0.671875 -4.015625q2.203125 0.765625 3.359375 2.4375q1.15625 1.671875 1.15625 4.171875q0 3.96875 -2.59375 5.875q-2.078125 1.5 -5.234375 1.5q-3.78125 0 -5.921875 -1.96875q-2.140625 -1.984375 -2.140625 -5.0q0 -3.390625 2.25 -5.34375q2.234375 -1.96875 6.859375 -1.890625l0 10.078125q1.78125 -0.03125 2.78125 -0.953125q1.0 -0.9375 1.0 -2.328125q0 -0.953125 -0.515625 -1.59375q-0.515625 -0.640625 -1.671875 -0.96875zm-4.0625 -0.234375q-1.75 0.046875 -2.65625 0.90625q-0.90625 0.859375 -0.90625 2.09375q0 1.3125 0.953125 2.171875q0.96875 0.859375 2.609375 0.84375l0 -6.015625zm8.90625 -21.107788l0 4.015625l-7.765625 0q-2.453125 0 -3.171875 0.265625q-0.734375 0.25 -1.125 0.84375q-0.40625 0.578125 -0.40625 1.390625q0 1.046875 0.578125 1.875q0.5625 0.828125 1.515625 1.140625q0.9375 0.3125 3.484375 0.3125l6.890625 0l0 4.015625l-15.203125 0l0 -3.734375l2.234375 0q-2.578125 -1.984375 -2.578125 -5.015625q0 -1.328125 0.484375 -2.421875q0.46875 -1.109375 1.21875 -1.671875q0.734375 -0.578125 1.6875 -0.796875q0.9375 -0.21875 2.703125 -0.21875l9.453125 0zm-10.71875 -17.33667l0.71875 3.953125q-1.1875 0.203125 -1.78125 0.921875q-0.609375 0.703125 -0.609375 1.828125q0 1.515625 1.046875 2.40625q1.03125 0.890625 3.46875 0.890625q2.703125 0 3.828125 -0.90625q1.109375 -0.90625 1.109375 -2.4375q0 -1.15625 -0.640625 -1.875q-0.65625 -0.734375 -2.25 -1.03125l0.671875 -3.953125q2.71875 0.609375 4.109375 2.359375q1.390625 1.75 1.390625 4.6875q0 3.328125 -2.09375 5.3125q-2.109375 1.984375 -5.84375 1.984375q-3.765625 0 -5.859375 -1.984375q-2.09375 -2.0 -2.09375 -5.390625q0 -2.78125 1.203125 -4.421875q1.1875 -1.640625 3.625 -2.34375zm5.875 -11.857788l0.671875 -4.015625q2.203125 0.765625 3.359375 2.4375q1.15625 1.671875 1.15625 4.171875q0 3.96875 -2.59375 5.875q-2.078125 1.5 -5.234375 1.5q-3.78125 0 -5.921875 -1.96875q-2.140625 -1.984375 -2.140625 -5.0q0 -3.390625 2.25 -5.34375q2.234375 -1.96875 6.859375 -1.890625l0 10.078125q1.78125 -0.03125 2.78125 -0.953125q1.0 -0.9375 1.0 -2.328125q0 -0.953125 -0.515625 -1.59375q-0.515625 -0.640625 -1.671875 -0.96875zm-4.0625 -0.234375q-1.75 0.046875 -2.65625 0.90625q-0.90625 0.859375 -0.90625 2.09375q0 1.3125 0.953125 2.171875q0.96875 0.859375 2.609375 0.84375l0 -6.015625zm8.90625 -21.217163l0 3.734375l-2.234375 0q1.296875 0.921875 1.9375 2.203125q0.640625 1.265625 0.640625 2.546875q0 2.625 -2.109375 4.5q-2.109375 1.859375 -5.890625 1.859375q-3.875 0 -5.875 -1.8125q-2.015625 -1.828125 -2.015625 -4.609375q0 -2.546875 2.109375 -4.40625l-7.5625 0l0 -4.015625l21.0 0zm-7.9375 10.734375q2.4375 0 3.53125 -0.671875q1.578125 -0.96875 1.578125 -2.71875q0 -1.390625 -1.1875 -2.359375q-1.1875 -0.984375 -3.53125 -0.984375q-2.625 0 -3.765625 0.953125q-1.15625 0.9375 -1.15625 2.421875q0 1.421875 1.140625 2.390625q1.125 0.96875 3.390625 0.96875zm7.9375 -22.922455l-21.0 0l0 -4.125l14.03125 -8.59375l-14.03125 0l0 -3.9375l21.0 0l0 4.25l-13.6875 8.46875l13.6875 0l0 3.9375zm-7.8125 -20.17984q-2.015625 0 -3.890625 -0.984375q-1.875 -1.0 -2.859375 -2.8125q-0.984375 -1.8125 -0.984375 -4.03125q0 -3.453125 2.25 -5.65625q2.234375 -2.21875 5.65625 -2.21875q3.4375 0 5.71875 2.234375q2.265625 2.21875 2.265625 5.609375q0 2.078125 -0.9375 3.984375q-0.953125 1.890625 -2.78125 2.890625q-1.828125 0.984375 -4.4375 0.984375zm0.203125 -4.125q2.265625 0 3.46875 -1.078125q1.203125 -1.078125 1.203125 -2.640625q0 -1.578125 -1.203125 -2.640625q-1.203125 -1.078125 -3.484375 -1.078125q-2.234375 0 -3.4375 1.078125q-1.203125 1.0625 -1.203125 2.640625q0 1.5625 1.203125 2.640625q1.203125 1.078125 3.453125 1.078125zm-7.59375 -21.696045l3.203125 0l0 2.75l6.125 0q1.859375 0 2.171875 -0.078125q0.3125 -0.078125 0.515625 -0.359375q0.1875 -0.28125 0.1875 -0.6875q0 -0.546875 -0.375 -1.609375l3.125 -0.34375q0.59375 1.40625 0.59375 3.171875q0 1.09375 -0.359375 1.96875q-0.375 0.875 -0.953125 1.28125q-0.578125 0.40625 -1.5625 0.5625q-0.703125 0.125 -2.84375 0.125l-6.625 0l0 1.859375l-3.203125 0l0 -1.859375l-3.03125 0l-2.34375 -4.03125l5.375 0l0 -2.75zm10.359375 -11.594635l0.671875 -4.015625q2.203125 0.765625 3.359375 2.4375q1.15625 1.671875 1.15625 4.171875q0 3.96875 -2.59375 5.875q-2.078125 1.5 -5.234375 1.5q-3.78125 0 -5.921875 -1.96875q-2.140625 -1.984375 -2.140625 -5.0q0 -3.390625 2.25 -5.34375q2.234375 -1.96875 6.859375 -1.890625l0 10.078125q1.78125 -0.03125 2.78125 -0.953125q1.0 -0.9375 1.0 -2.328125q0 -0.953125 -0.515625 -1.59375q-0.515625 -0.640625 -1.671875 -0.96875zm-4.0625 -0.234375q-1.75 0.046875 -2.65625 0.90625q-0.90625 0.859375 -0.90625 2.09375q0 1.3125 0.953125 2.171875q0.96875 0.859375 2.609375 0.84375l0 -6.015625zm4.5625 -5.857788l-0.609375 -4.03125q1.171875 -0.265625 1.78125 -1.046875q0.609375 -0.796875 0.609375 -2.203125q0 -1.5625 -0.578125 -2.359375q-0.390625 -0.53125 -1.0625 -0.53125q-0.46875 0 -0.765625 0.296875q-0.28125 0.296875 -0.53125 1.34375q-1.078125 4.859375 -1.953125 6.171875q-1.234375 1.796875 -3.4375 1.796875q-1.96875 0 -3.3125 -1.5625q-1.34375 -1.5625 -1.34375 -4.828125q0 -3.125 1.015625 -4.640625q1.015625 -1.53125 3.0 -2.09375l0.703125 3.796875q-0.890625 0.234375 -1.359375 0.921875q-0.46875 0.671875 -0.46875 1.9375q0 1.59375 0.4375 2.28125q0.3125 0.453125 0.8125 0.453125q0.4375 0 0.734375 -0.40625q0.40625 -0.53125 1.140625 -3.75q0.71875 -3.21875 1.78125 -4.5q1.078125 -1.25 3.0 -1.25q2.09375 0 3.59375 1.75q1.5 1.734375 1.5 5.171875q0 3.09375 -1.25 4.90625q-1.265625 1.8125 -3.4375 2.375z" fill-rule="nonzero"/><path fill="#000000" fill-opacity="0.0" d="m223.63518 565.6772l44.976364 0l0 58.173218l-44.976364 0z" fill-rule="evenodd"/><path fill="#000000" d="m234.9633 605.39716l0 -22.90625l16.984375 0l0 3.875l-12.359375 0l0 5.078125l11.5 0l0 3.859375l-11.5 0l0 6.234375l12.796875 0l0 3.859375l-17.421875 0z" fill-rule="nonzero"/><path fill="#000000" fill-opacity="0.0" d="m306.90814 565.6772l44.97638 0l0 58.173218l-44.97638 0z" fill-rule="evenodd"/><path fill="#000000" d="m338.89252 605.39716l-5.03125 0l-2.0 -5.203125l-9.15625 0l-1.890625 5.203125l-4.90625 0l8.921875 -22.90625l4.890625 0l9.171875 22.90625zm-8.515625 -9.0625l-3.15625 -8.5l-3.09375 8.5l6.25 0z" fill-rule="nonzero"/><path fill="#000000" fill-opacity="0.0" d="m390.1811 565.6772l44.97638 0l0 58.173218l-44.97638 0z" fill-rule="evenodd"/><path fill="#000000" d="m401.4936 582.4909l8.453125 0q2.859375 0 4.359375 0.4375q2.015625 0.59375 3.453125 2.109375q1.4375 1.515625 2.1875 3.71875q0.75 2.1875 0.75 5.40625q0 2.828125 -0.703125 4.875q-0.859375 2.5 -2.453125 4.046875q-1.203125 1.171875 -3.25 1.828125q-1.53125 0.484375 -4.09375 0.484375l-8.703125 0l0 -22.90625zm4.625 3.875l0 15.171875l3.453125 0q1.9375 0 2.796875 -0.21875q1.125 -0.28125 1.859375 -0.953125q0.75 -0.671875 1.21875 -2.203125q0.46875 -1.546875 0.46875 -4.203125q0 -2.65625 -0.46875 -4.078125q-0.46875 -1.421875 -1.3125 -2.21875q-0.84375 -0.796875 -2.140625 -1.078125q-0.96875 -0.21875 -3.796875 -0.21875l-2.078125 0z" fill-rule="nonzero"/><path fill="#000000" fill-opacity="0.0" d="m473.45407 565.6772l44.97635 0l0 58.173218l-44.97635 0z" fill-rule="evenodd"/><path fill="#000000" d="m484.81345 605.39716l0 -22.90625l15.703125 0l0 3.875l-11.078125 0l0 5.421875l9.5625 0l0 3.875l-9.5625 0l0 9.734375l-4.625 0z" fill-rule="nonzero"/><path fill="#000000" fill-opacity="0.0" d="m542.3648 339.63016l0 0c0 -6.784088 5.499634 -12.283691 12.283752 -12.283691l49.13336 0l0 0c3.2578125 0 6.382263 1.2941589 8.685852 3.5978088c2.30365 2.30365 3.5978394 5.4280396 3.5978394 8.685883l0 49.13336c0 6.7841187 -5.4995728 12.283722 -12.283691 12.283722l-49.13336 0c-6.7841187 0 -12.283752 -5.4996033 -12.283752 -12.283722z" fill-rule="evenodd"/><path stroke="#b7b7b7" stroke-width="2.0" stroke-linejoin="round" stroke-linecap="butt" d="m542.3648 339.63016l0 0c0 -6.784088 5.499634 -12.283691 12.283752 -12.283691l49.13336 0l0 0c3.2578125 0 6.382263 1.2941589 8.685852 3.5978088c2.30365 2.30365 3.5978394 5.4280396 3.5978394 8.685883l0 49.13336c0 6.7841187 -5.4995728 12.283722 -12.283691 12.283722l-49.13336 0c-6.7841187 0 -12.283752 -5.4996033 -12.283752 -12.283722z" fill-rule="evenodd"/><path fill="#000000" fill-opacity="0.0" d="m542.3648 20.895258l0 0c0 -6.7841053 5.499634 -12.28371 12.283752 -12.28371l49.13336 0l0 0c3.2578125 0 6.382263 1.2941732 8.685852 3.5978155c2.30365 2.3036423 3.5978394 5.428053 3.5978394 8.685894l0 49.13337c0 6.7841034 -5.4995728 12.283707 -12.283691 12.283707l-49.13336 0c-6.7841187 0 -12.283752 -5.4996033 -12.283752 -12.283707z" fill-rule="evenodd"/><path stroke="#b7b7b7" stroke-width="2.0" stroke-linejoin="round" stroke-linecap="butt" d="m542.3648 20.895258l0 0c0 -6.7841053 5.499634 -12.28371 12.283752 -12.28371l49.13336 0l0 0c3.2578125 0 6.382263 1.2941732 8.685852 3.5978155c2.30365 2.3036423 3.5978394 5.428053 3.5978394 8.685894l0 49.13337c0 6.7841034 -5.4995728 12.283707 -12.283691 12.283707l-49.13336 0c-6.7841187 0 -12.283752 -5.4996033 -12.283752 -12.283707z" fill-rule="evenodd"/><path fill="#000000" fill-opacity="0.0" d="m542.3648 100.33883l0 0c0 -6.7841034 5.499634 -12.283714 12.283752 -12.283714l49.13336 0l0 0c3.2578125 0 6.382263 1.2941742 8.685852 3.5978165c2.30365 2.3036423 3.5978394 5.428055 3.5978394 8.685898l0 49.13337c0 6.7841034 -5.4995728 12.283707 -12.283691 12.283707l-49.13336 0c-6.7841187 0 -12.283752 -5.4996033 -12.283752 -12.283707z" fill-rule="evenodd"/><path stroke="#b7b7b7" stroke-width="2.0" stroke-linejoin="round" stroke-linecap="butt" d="m542.3648 100.33883l0 0c0 -6.7841034 5.499634 -12.283714 12.283752 -12.283714l49.13336 0l0 0c3.2578125 0 6.382263 1.2941742 8.685852 3.5978165c2.30365 2.3036423 3.5978394 5.428055 3.5978394 8.685898l0 49.13337c0 6.7841034 -5.4995728 12.283707 -12.283691 12.283707l-49.13336 0c-6.7841187 0 -12.283752 -5.4996033 -12.283752 -12.283707z" fill-rule="evenodd"/><path fill="#000000" fill-opacity="0.0" d="m542.3648 180.74303l0 0c0 -6.7841034 5.499634 -12.283707 12.283752 -12.283707l49.13336 0l0 0c3.2578125 0 6.382263 1.2941742 8.685852 3.5978088c2.30365 2.30365 3.5978394 5.428055 3.5978394 8.685898l0 49.13336c0 6.7841187 -5.4995728 12.283722 -12.283691 12.283722l-49.13336 0c-6.7841187 0 -12.283752 -5.4996033 -12.283752 -12.283722z" fill-rule="evenodd"/><path stroke="#b7b7b7" stroke-width="2.0" stroke-linejoin="round" stroke-linecap="butt" d="m542.3648 180.74303l0 0c0 -6.7841034 5.499634 -12.283707 12.283752 -12.283707l49.13336 0l0 0c3.2578125 0 6.382263 1.2941742 8.685852 3.5978088c2.30365 2.30365 3.5978394 5.428055 3.5978394 8.685898l0 49.13336c0 6.7841187 -5.4995728 12.283722 -12.283691 12.283722l-49.13336 0c-6.7841187 0 -12.283752 -5.4996033 -12.283752 -12.283722z" fill-rule="evenodd"/><path fill="#000000" fill-opacity="0.0" d="m625.6378 20.895258l0 0c0 -6.7841053 5.4995728 -12.28371 12.283691 -12.28371l49.13336 0l0 0c3.2578735 0 6.382263 1.2941732 8.685913 3.5978155c2.30365 2.3036423 3.5977783 5.428053 3.5977783 8.685894l0 49.13337c0 6.7841034 -5.4995728 12.283707 -12.283691 12.283707l-49.13336 0c-6.7841187 0 -12.283691 -5.4996033 -12.283691 -12.283707z" fill-rule="evenodd"/><path stroke="#b7b7b7" stroke-width="2.0" stroke-linejoin="round" stroke-linecap="butt" d="m625.6378 20.895258l0 0c0 -6.7841053 5.4995728 -12.28371 12.283691 -12.28371l49.13336 0l0 0c3.2578735 0 6.382263 1.2941732 8.685913 3.5978155c2.30365 2.3036423 3.5977783 5.428053 3.5977783 8.685894l0 49.13337c0 6.7841034 -5.4995728 12.283707 -12.283691 12.283707l-49.13336 0c-6.7841187 0 -12.283691 -5.4996033 -12.283691 -12.283707z" fill-rule="evenodd"/><path fill="#000000" fill-opacity="0.0" d="m625.6378 260.1879l0 0c0 -6.784088 5.4995728 -12.283691 12.283691 -12.283691l49.13336 0l0 0c3.2578735 0 6.382263 1.2941742 8.685913 3.5978088c2.30365 2.30365 3.5977783 5.4280396 3.5977783 8.685883l0 49.133392c0 6.784088 -5.4995728 12.283691 -12.283691 12.283691l-49.13336 0c-6.7841187 0 -12.283691 -5.4996033 -12.283691 -12.283691z" fill-rule="evenodd"/><path stroke="#b7b7b7" stroke-width="2.0" stroke-linejoin="round" stroke-linecap="butt" d="m625.6378 260.1879l0 0c0 -6.784088 5.4995728 -12.283691 12.283691 -12.283691l49.13336 0l0 0c3.2578735 0 6.382263 1.2941742 8.685913 3.5978088c2.30365 2.30365 3.5977783 5.4280396 3.5977783 8.685883l0 49.133392c0 6.784088 -5.4995728 12.283691 -12.283691 12.283691l-49.13336 0c-6.7841187 0 -12.283691 -5.4996033 -12.283691 -12.283691z" fill-rule="evenodd"/><path fill="#38761c" d="m625.6378 100.819145l0 0c0 -6.784111 5.4995728 -12.283714 12.283691 -12.283714l49.13336 0l0 0c3.2578735 0 6.382263 1.2941742 8.685913 3.5978165c2.30365 2.3036423 3.5977783 5.428055 3.5977783 8.685898l0 49.13337c0 6.7841034 -5.4995728 12.283707 -12.283691 12.283707l-49.13336 0c-6.7841187 0 -12.283691 -5.4996033 -12.283691 -12.283707z" fill-rule="evenodd"/><path stroke="#38761c" stroke-width="4.0" stroke-linejoin="round" stroke-linecap="butt" d="m625.6378 100.819145l0 0c0 -6.784111 5.4995728 -12.283714 12.283691 -12.283714l49.13336 0l0 0c3.2578735 0 6.382263 1.2941742 8.685913 3.5978165c2.30365 2.3036423 3.5977783 5.428055 3.5977783 8.685898l0 49.13337c0 6.7841034 -5.4995728 12.283707 -12.283691 12.283707l-49.13336 0c-6.7841187 0 -12.283691 -5.4996033 -12.283691 -12.283707z" fill-rule="evenodd"/><path fill="#000000" fill-opacity="0.0" d="m556.72705 565.6772l44.97638 0l0 58.173218l-44.97638 0z" fill-rule="evenodd"/><path fill="#000000" d="m582.7114 596.9753l4.484375 1.421875q-1.03125 3.75 -3.4375 5.578125q-2.390625 1.8125 -6.078125 1.8125q-4.5625 0 -7.5 -3.109375q-2.9375 -3.125 -2.9375 -8.53125q0 -5.71875 2.953125 -8.875q2.953125 -3.171875 7.765625 -3.171875q4.203125 0 6.828125 2.484375q1.5625 1.46875 2.34375 4.21875l-4.578125 1.09375q-0.40625 -1.78125 -1.703125 -2.8125q-1.28125 -1.03125 -3.125 -1.03125q-2.546875 0 -4.140625 1.828125q-1.578125 1.828125 -1.578125 5.921875q0 4.34375 1.5625 6.1875q1.5625 1.84375 4.0625 1.84375q1.84375 0 3.171875 -1.171875q1.328125 -1.171875 1.90625 -3.6875z" fill-rule="nonzero"/><path fill="#000000" fill-opacity="0.0" d="m640.0 565.6772l44.97638 0l0 58.173218l-44.97638 0z" fill-rule="evenodd"/><path fill="#000000" d="m661.9844 596.9753l0 -3.859375l9.96875 0l0 9.125q-1.453125 1.40625 -4.21875 2.484375q-2.75 1.0625 -5.578125 1.0625q-3.59375 0 -6.265625 -1.5q-2.671875 -1.515625 -4.015625 -4.3125q-1.34375 -2.8125 -1.34375 -6.109375q0 -3.578125 1.5 -6.359375q1.5 -2.78125 4.390625 -4.265625q2.203125 -1.140625 5.484375 -1.140625q4.265625 0 6.65625 1.796875q2.40625 1.78125 3.09375 4.9375l-4.59375 0.859375q-0.484375 -1.6875 -1.828125 -2.65625q-1.328125 -0.984375 -3.328125 -0.984375q-3.03125 0 -4.828125 1.921875q-1.78125 1.921875 -1.78125 5.703125q0 4.078125 1.8125 6.125q1.8125 2.03125 4.75 2.03125q1.453125 0 2.90625 -0.5625q1.46875 -0.578125 2.515625 -1.390625l0 -2.90625l-5.296875 0z" fill-rule="nonzero"/><path fill="#000000" fill-opacity="0.0" d="m542.3648 261.14722l0 0c0 -6.784088 5.499634 -12.283707 12.283752 -12.283707l49.13336 0l0 0c3.2578125 0 6.382263 1.2941742 8.685852 3.597824c2.30365 2.3036346 3.5978394 5.4280396 3.5978394 8.685883l0 49.133392c0 6.784088 -5.4995728 12.283691 -12.283691 12.283691l-49.13336 0c-6.7841187 0 -12.283752 -5.4996033 -12.283752 -12.283691z" fill-rule="evenodd"/><path stroke="#b7b7b7" stroke-width="2.0" stroke-linejoin="round" stroke-linecap="butt" d="m542.3648 261.14722l0 0c0 -6.784088 5.499634 -12.283707 12.283752 -12.283707l49.13336 0l0 0c3.2578125 0 6.382263 1.2941742 8.685852 3.597824c2.30365 2.3036346 3.5978394 5.4280396 3.5978394 8.685883l0 49.133392c0 6.784088 -5.4995728 12.283691 -12.283691 12.283691l-49.13336 0c-6.7841187 0 -12.283752 -5.4996033 -12.283752 -12.283691z" fill-rule="evenodd"/><path fill="#38761c" d="m542.3648 419.55405l0 0c0 -6.784088 5.499634 -12.283691 12.283752 -12.283691l49.13336 0l0 0c3.2578125 0 6.382263 1.2941589 8.685852 3.5978088c2.30365 2.30365 3.5978394 5.4280396 3.5978394 8.685883l0 49.13336c0 6.7841187 -5.4995728 12.283722 -12.283691 12.283722l-49.13336 0c-6.7841187 0 -12.283752 -5.4996033 -12.283752 -12.283722z" fill-rule="evenodd"/><path stroke="#38761c" stroke-width="4.0" stroke-linejoin="round" stroke-linecap="butt" d="m542.3648 419.55405l0 0c0 -6.784088 5.499634 -12.283691 12.283752 -12.283691l49.13336 0l0 0c3.2578125 0 6.382263 1.2941589 8.685852 3.5978088c2.30365 2.30365 3.5978394 5.4280396 3.5978394 8.685883l0 49.13336c0 6.7841187 -5.4995728 12.283722 -12.283691 12.283722l-49.13336 0c-6.7841187 0 -12.283752 -5.4996033 -12.283752 -12.283722z" fill-rule="evenodd"/><path fill="#000000" fill-opacity="0.0" d="m625.6378 419.55405l0 0c0 -6.784088 5.4995728 -12.283691 12.283691 -12.283691l49.13336 0l0 0c3.2578735 0 6.382263 1.2941589 8.685913 3.5978088c2.30365 2.30365 3.5977783 5.4280396 3.5977783 8.685883l0 49.13336c0 6.7841187 -5.4995728 12.283722 -12.283691 12.283722l-49.13336 0c-6.7841187 0 -12.283691 -5.4996033 -12.283691 -12.283722z" fill-rule="evenodd"/><path stroke="#b7b7b7" stroke-width="2.0" stroke-linejoin="round" stroke-linecap="butt" d="m625.6378 419.55405l0 0c0 -6.784088 5.4995728 -12.283691 12.283691 -12.283691l49.13336 0l0 0c3.2578735 0 6.382263 1.2941589 8.685913 3.5978088c2.30365 2.30365 3.5977783 5.4280396 3.5977783 8.685883l0 49.13336c0 6.7841187 -5.4995728 12.283722 -12.283691 12.283722l-49.13336 0c-6.7841187 0 -12.283691 -5.4996033 -12.283691 -12.283722z" fill-rule="evenodd"/><path fill="#000000" fill-opacity="0.0" d="m625.6378 180.50287l0 0c0 -6.7841034 5.4995728 -12.283707 12.283691 -12.283707l49.13336 0l0 0c3.2578735 0 6.382263 1.2941742 8.685913 3.5978088c2.30365 2.30365 3.5977783 5.428055 3.5977783 8.685898l0 49.13336c0 6.7841187 -5.4995728 12.283722 -12.283691 12.283722l-49.13336 0c-6.7841187 0 -12.283691 -5.4996033 -12.283691 -12.283722z" fill-rule="evenodd"/><path stroke="#b7b7b7" stroke-width="2.0" stroke-linejoin="round" stroke-linecap="butt" d="m625.6378 180.50287l0 0c0 -6.7841034 5.4995728 -12.283707 12.283691 -12.283707l49.13336 0l0 0c3.2578735 0 6.382263 1.2941742 8.685913 3.5978088c2.30365 2.30365 3.5977783 5.428055 3.5977783 8.685898l0 49.13336c0 6.7841187 -5.4995728 12.283722 -12.283691 12.283722l-49.13336 0c-6.7841187 0 -12.283691 -5.4996033 -12.283691 -12.283722z" fill-rule="evenodd"/><path fill="#0b5394" d="m59.0 180.32307l0 0c0 -6.7841034 5.4996033 -12.283707 12.283707 -12.283707l49.13337 0l0 0c3.257843 0 6.3822556 1.2941742 8.68589 3.597824c2.30365 2.3036346 3.597824 5.4280396 3.597824 8.685883l0 49.133377c0 6.7841034 -5.499611 12.283707 -12.283714 12.283707l-49.13337 0c-6.7841034 0 -12.283707 -5.4996033 -12.283707 -12.283707z" fill-rule="evenodd"/><path stroke="#0b5394" stroke-width="4.0" stroke-linejoin="round" stroke-linecap="butt" d="m59.0 180.32307l0 0c0 -6.7841034 5.4996033 -12.283707 12.283707 -12.283707l49.13337 0l0 0c3.257843 0 6.3822556 1.2941742 8.68589 3.597824c2.30365 2.3036346 3.597824 5.4280396 3.597824 8.685883l0 49.133377c0 6.7841034 -5.499611 12.283707 -12.283714 12.283707l-49.13337 0c-6.7841034 0 -12.283707 -5.4996033 -12.283707 -12.283707z" fill-rule="evenodd"/><path fill="#000000" fill-opacity="0.0" d="m73.362206 175.80315l44.97638 0l0 58.173233l-44.97638 0z" fill-rule="evenodd"/><path fill="#ffffff" d="m84.72158 215.52315l0 -22.90625l15.703125 0l0 3.875l-11.078125 0l0 5.421875l9.5625 0l0 3.875l-9.5625 0l0 9.734375l-4.625 0z" fill-rule="nonzero"/><path fill="#000000" fill-opacity="0.0" d="m459.09186 419.55405l0 0c0 -6.784088 5.4996033 -12.283691 12.283722 -12.283691l49.13333 0l0 0c3.2578735 0 6.382263 1.2941589 8.685913 3.5978088c2.30365 2.30365 3.5978394 5.4280396 3.5978394 8.685883l0 49.13336c0 6.7841187 -5.499634 12.283722 -12.283752 12.283722l-49.13333 0c-6.7841187 0 -12.283722 -5.4996033 -12.283722 -12.283722z" fill-rule="evenodd"/><path stroke="#b7b7b7" stroke-width="2.0" stroke-linejoin="round" stroke-linecap="butt" d="m459.09186 419.55405l0 0c0 -6.784088 5.4996033 -12.283691 12.283722 -12.283691l49.13333 0l0 0c3.2578735 0 6.382263 1.2941589 8.685913 3.5978088c2.30365 2.30365 3.5978394 5.4280396 3.5978394 8.685883l0 49.13336c0 6.7841187 -5.499634 12.283722 -12.283752 12.283722l-49.13333 0c-6.7841187 0 -12.283722 -5.4996033 -12.283722 -12.283722z" fill-rule="evenodd"/><path fill="#000000" fill-opacity="0.0" d="m625.6378 339.87033l0 0c0 -6.7841187 5.4995728 -12.283722 12.283691 -12.283722l49.13336 0l0 0c3.2578735 0 6.382263 1.2941895 8.685913 3.5978088c2.30365 2.30365 3.5977783 5.42807 3.5977783 8.685913l0 49.13336c0 6.7841187 -5.4995728 12.283722 -12.283691 12.283722l-49.13336 0c-6.7841187 0 -12.283691 -5.4996033 -12.283691 -12.283722z" fill-rule="evenodd"/><path stroke="#b7b7b7" stroke-width="2.0" stroke-linejoin="round" stroke-linecap="butt" d="m625.6378 339.87033l0 0c0 -6.7841187 5.4995728 -12.283722 12.283691 -12.283722l49.13336 0l0 0c3.2578735 0 6.382263 1.2941895 8.685913 3.5978088c2.30365 2.30365 3.5977783 5.42807 3.5977783 8.685913l0 49.13336c0 6.7841187 -5.4995728 12.283722 -12.283691 12.283722l-49.13336 0c-6.7841187 0 -12.283691 -5.4996033 -12.283691 -12.283722z" fill-rule="evenodd"/><path fill="#000000" fill-opacity="0.0" d="m209.27296 498.5173l0 0c0 -6.784088 5.4996033 -12.283722 12.283707 -12.283722l49.13336 0l0 0c3.257843 0 6.382263 1.2941895 8.685913 3.5978394c2.3036194 2.3036194 3.5978088 5.4280396 3.5978088 8.685883l0 49.133392c0 6.7840576 -5.4996033 12.283691 -12.283722 12.283691l-49.13336 0c-6.7841034 0 -12.283707 -5.499634 -12.283707 -12.283691z" fill-rule="evenodd"/><path stroke="#b7b7b7" stroke-width="2.0" stroke-linejoin="round" stroke-linecap="butt" d="m209.27296 498.5173l0 0c0 -6.784088 5.4996033 -12.283722 12.283707 -12.283722l49.13336 0l0 0c3.257843 0 6.382263 1.2941895 8.685913 3.5978394c2.3036194 2.3036194 3.5978088 5.4280396 3.5978088 8.685883l0 49.133392c0 6.7840576 -5.4996033 12.283691 -12.283722 12.283691l-49.13336 0c-6.7841034 0 -12.283707 -5.499634 -12.283707 -12.283691z" fill-rule="evenodd"/><path fill="#000000" fill-opacity="0.0" d="m292.54593 498.5173l0 0c0 -6.784088 5.4996033 -12.283722 12.283722 -12.283722l49.13336 0l0 0c3.257843 0 6.382263 1.2941895 8.685883 3.5978394c2.30365 2.3036194 3.5978088 5.4280396 3.5978088 8.685883l0 49.133392c0 6.7840576 -5.4996033 12.283691 -12.283691 12.283691l-49.13336 0c-6.7841187 0 -12.283722 -5.499634 -12.283722 -12.283691z" fill-rule="evenodd"/><path stroke="#b7b7b7" stroke-width="2.0" stroke-linejoin="round" stroke-linecap="butt" d="m292.54593 498.5173l0 0c0 -6.784088 5.4996033 -12.283722 12.283722 -12.283722l49.13336 0l0 0c3.257843 0 6.382263 1.2941895 8.685883 3.5978394c2.30365 2.3036194 3.5978088 5.4280396 3.5978088 8.685883l0 49.133392c0 6.7840576 -5.4996033 12.283691 -12.283691 12.283691l-49.13336 0c-6.7841187 0 -12.283722 -5.499634 -12.283722 -12.283691z" fill-rule="evenodd"/><path fill="#000000" fill-opacity="0.0" d="m375.8189 498.5173l0 0c0 -6.784088 5.4996033 -12.283722 12.283691 -12.283722l49.13336 0l0 0c3.257843 0 6.382263 1.2941895 8.685913 3.5978394c2.30365 2.3036194 3.5978088 5.4280396 3.5978088 8.685883l0 49.133392c0 6.7840576 -5.4996033 12.283691 -12.283722 12.283691l-49.13336 0c-6.784088 0 -12.283691 -5.499634 -12.283691 -12.283691z" fill-rule="evenodd"/><path stroke="#b7b7b7" stroke-width="2.0" stroke-linejoin="round" stroke-linecap="butt" d="m375.8189 498.5173l0 0c0 -6.784088 5.4996033 -12.283722 12.283691 -12.283722l49.13336 0l0 0c3.257843 0 6.382263 1.2941895 8.685913 3.5978394c2.30365 2.3036194 3.5978088 5.4280396 3.5978088 8.685883l0 49.133392c0 6.7840576 -5.4996033 12.283691 -12.283722 12.283691l-49.13336 0c-6.784088 0 -12.283691 -5.499634 -12.283691 -12.283691z" fill-rule="evenodd"/><path fill="#000000" fill-opacity="0.0" d="m625.6378 498.99762l0 0c0 -6.7841187 5.4995728 -12.283722 12.283691 -12.283722l49.13336 0l0 0c3.2578735 0 6.382263 1.2941895 8.685913 3.5978394c2.30365 2.3036194 3.5977783 5.4280396 3.5977783 8.685883l0 49.13336c0 6.7841187 -5.4995728 12.283691 -12.283691 12.283691l-49.13336 0c-6.7841187 0 -12.283691 -5.4995728 -12.283691 -12.283691z" fill-rule="evenodd"/><path stroke="#b7b7b7" stroke-width="2.0" stroke-linejoin="round" stroke-linecap="butt" d="m625.6378 498.99762l0 0c0 -6.7841187 5.4995728 -12.283722 12.283691 -12.283722l49.13336 0l0 0c3.2578735 0 6.382263 1.2941895 8.685913 3.5978394c2.30365 2.3036194 3.5977783 5.4280396 3.5977783 8.685883l0 49.13336c0 6.7841187 -5.4995728 12.283691 -12.283691 12.283691l-49.13336 0c-6.7841187 0 -12.283691 -5.4995728 -12.283691 -12.283691z" fill-rule="evenodd"/><path fill="#000000" fill-opacity="0.0" d="m459.09186 498.99762l0 0c0 -6.7841187 5.4996033 -12.283722 12.283722 -12.283722l49.13333 0l0 0c3.2578735 0 6.382263 1.2941895 8.685913 3.5978394c2.30365 2.3036194 3.5978394 5.4280396 3.5978394 8.685883l0 49.13336c0 6.7841187 -5.499634 12.283691 -12.283752 12.283691l-49.13333 0c-6.7841187 0 -12.283722 -5.4995728 -12.283722 -12.283691z" fill-rule="evenodd"/><path stroke="#b7b7b7" stroke-width="2.0" stroke-linejoin="round" stroke-linecap="butt" d="m459.09186 498.99762l0 0c0 -6.7841187 5.4996033 -12.283722 12.283722 -12.283722l49.13333 0l0 0c3.2578735 0 6.382263 1.2941895 8.685913 3.5978394c2.30365 2.3036194 3.5978394 5.4280396 3.5978394 8.685883l0 49.13336c0 6.7841187 -5.499634 12.283691 -12.283752 12.283691l-49.13333 0c-6.7841187 0 -12.283722 -5.4995728 -12.283722 -12.283691z" fill-rule="evenodd"/><path fill="#000000" fill-opacity="0.0" d="m542.3648 499.47794l0 0c0 -6.7841187 5.499634 -12.283722 12.283752 -12.283722l49.13336 0l0 0c3.2578125 0 6.382263 1.2941895 8.685852 3.5978394c2.30365 2.3036194 3.5978394 5.4280396 3.5978394 8.685883l0 49.133392c0 6.7840576 -5.4995728 12.283691 -12.283691 12.283691l-49.13336 0c-6.7841187 0 -12.283752 -5.499634 -12.283752 -12.283691z" fill-rule="evenodd"/><path stroke="#b7b7b7" stroke-width="2.0" stroke-linejoin="round" stroke-linecap="butt" d="m542.3648 499.47794l0 0c0 -6.7841187 5.499634 -12.283722 12.283752 -12.283722l49.13336 0l0 0c3.2578125 0 6.382263 1.2941895 8.685852 3.5978394c2.30365 2.3036194 3.5978394 5.4280396 3.5978394 8.685883l0 49.133392c0 6.7840576 -5.4995728 12.283691 -12.283691 12.283691l-49.13336 0c-6.7841187 0 -12.283752 -5.499634 -12.283752 -12.283691z" fill-rule="evenodd"/><path fill="#0b5394" d="m59.0 500.68265l0 0c0 -6.784088 5.4996033 -12.283691 12.283707 -12.283691l49.13337 0l0 0c3.257843 0 6.3822556 1.2941589 8.68589 3.5978088c2.30365 2.30365 3.597824 5.4280396 3.597824 8.685883l0 49.133392c0 6.7841187 -5.499611 12.283691 -12.283714 12.283691l-49.13337 0c-6.7841034 0 -12.283707 -5.4995728 -12.283707 -12.283691z" fill-rule="evenodd"/><path stroke="#0b5394" stroke-width="4.0" stroke-linejoin="round" stroke-linecap="butt" d="m59.0 500.68265l0 0c0 -6.784088 5.4996033 -12.283691 12.283707 -12.283691l49.13337 0l0 0c3.257843 0 6.3822556 1.2941589 8.68589 3.5978088c2.30365 2.30365 3.597824 5.4280396 3.597824 8.685883l0 49.133392c0 6.7841187 -5.499611 12.283691 -12.283714 12.283691l-49.13337 0c-6.7841034 0 -12.283707 -5.4995728 -12.283707 -12.283691z" fill-rule="evenodd"/><path fill="#000000" fill-opacity="0.0" d="m73.362206 496.16272l44.97638 0l0 58.173218l-44.97638 0z" fill-rule="evenodd"/><path fill="#ffffff" d="m84.705956 512.9765l9.15625 0q2.71875 0 4.046875 0.234375q1.34375 0.21875 2.390625 0.9375q1.0625 0.71875 1.765625 1.921875q0.703125 1.1875 0.703125 2.671875q0 1.609375 -0.875 2.953125q-0.859375 1.34375 -2.34375 2.015625q2.09375 0.609375 3.21875 2.078125q1.125 1.46875 1.125 3.453125q0 1.5625 -0.734375 3.046875q-0.71875 1.46875 -1.984375 2.359375q-1.25 0.875 -3.09375 1.078125q-1.15625 0.125 -5.578125 0.15625l-7.796875 0l0 -22.90625zm4.625 3.8125l0 5.296875l3.03125 0q2.703125 0 3.359375 -0.078125q1.1875 -0.140625 1.859375 -0.8125q0.6875 -0.6875 0.6875 -1.796875q0 -1.0625 -0.59375 -1.71875q-0.578125 -0.671875 -1.734375 -0.8125q-0.6875 -0.078125 -3.953125 -0.078125l-2.65625 0zm0 9.109375l0 6.125l4.28125 0q2.5 0 3.171875 -0.140625q1.03125 -0.1875 1.671875 -0.90625q0.65625 -0.734375 0.65625 -1.953125q0 -1.03125 -0.5 -1.75q-0.5 -0.71875 -1.453125 -1.046875q-0.9375 -0.328125 -4.09375 -0.328125l-3.734375 0z" fill-rule="nonzero"/><path fill="#0b5394" d="m59.0 20.353264l0 0c0 -6.7841053 5.4996033 -12.2837105 12.283707 -12.2837105l49.13337 0l0 0c3.257843 0 6.3822556 1.2941732 8.68589 3.5978155c2.30365 2.3036432 3.597824 5.428052 3.597824 8.685895l0 49.13337c0 6.7841034 -5.499611 12.283707 -12.283714 12.283707l-49.13337 0c-6.7841034 0 -12.283707 -5.4996033 -12.283707 -12.283707z" fill-rule="evenodd"/><path stroke="#0b5394" stroke-width="4.0" stroke-linejoin="round" stroke-linecap="butt" d="m59.0 20.353264l0 0c0 -6.7841053 5.4996033 -12.2837105 12.283707 -12.2837105l49.13337 0l0 0c3.257843 0 6.3822556 1.2941732 8.68589 3.5978155c2.30365 2.3036432 3.597824 5.428052 3.597824 8.685895l0 49.13337c0 6.7841034 -5.499611 12.283707 -12.283714 12.283707l-49.13337 0c-6.7841034 0 -12.283707 -5.4996033 -12.283707 -12.283707z" fill-rule="evenodd"/><path fill="#000000" fill-opacity="0.0" d="m73.362206 15.833333l44.97638 0l0 58.17323l-44.97638 0z" fill-rule="evenodd"/><path fill="#ffffff" d="m84.69033 55.553333l0 -22.90625l16.984375 0l0 3.875l-12.359375 0l0 5.078125l11.5 0l0 3.859375l-11.5 0l0 6.234375l12.796875 0l0 3.859375l-17.421875 0z" fill-rule="nonzero"/><path fill="#0b5394" d="m59.0 100.518616l0 0c0 -6.7841034 5.4996033 -12.283707 12.283707 -12.283707l49.13337 0l0 0c3.257843 0 6.3822556 1.2941742 8.68589 3.5978165c2.30365 2.3036423 3.597824 5.428047 3.597824 8.68589l0 49.133377c0 6.7841034 -5.499611 12.283707 -12.283714 12.283707l-49.13337 0c-6.7841034 0 -12.283707 -5.4996033 -12.283707 -12.283707z" fill-rule="evenodd"/><path stroke="#0b5394" stroke-width="4.0" stroke-linejoin="round" stroke-linecap="butt" d="m59.0 100.518616l0 0c0 -6.7841034 5.4996033 -12.283707 12.283707 -12.283707l49.13337 0l0 0c3.257843 0 6.3822556 1.2941742 8.68589 3.5978165c2.30365 2.3036423 3.597824 5.428047 3.597824 8.68589l0 49.133377c0 6.7841034 -5.499611 12.283707 -12.283714 12.283707l-49.13337 0c-6.7841034 0 -12.283707 -5.4996033 -12.283707 -12.283707z" fill-rule="evenodd"/><path fill="#000000" fill-opacity="0.0" d="m73.362206 95.99869l44.97638 0l0 58.173233l-44.97638 0z" fill-rule="evenodd"/><path fill="#ffffff" d="m95.34658 127.296814l0 -3.859375l9.96875 0l0 9.125q-1.453125 1.40625 -4.21875 2.484375q-2.75 1.0625 -5.578125 1.0625q-3.59375 0 -6.265625 -1.5q-2.671875 -1.515625 -4.015625 -4.3125q-1.34375 -2.8125 -1.34375 -6.109375q0 -3.578125 1.5 -6.359375q1.5 -2.78125 4.390625 -4.265625q2.203125 -1.140625 5.484375 -1.140625q4.265625 0 6.65625 1.796875q2.40625 1.78125 3.09375 4.9375l-4.59375 0.859375q-0.484375 -1.6875 -1.828125 -2.65625q-1.328125 -0.984375 -3.328125 -0.984375q-3.03125 0 -4.828125 1.921875q-1.78125 1.921875 -1.78125 5.703125q0 4.078125 1.8125 6.125q1.8125 2.03125 4.75 2.03125q1.453125 0 2.90625 -0.5625q1.46875 -0.578125 2.515625 -1.390625l0 -2.90625l-5.296875 0z" fill-rule="nonzero"/><path fill="#0b5394" d="m59.0 420.48712l0 0c0 -6.7841187 5.4996033 -12.283722 12.283707 -12.283722l49.13337 0l0 0c3.257843 0 6.3822556 1.2941895 8.68589 3.5978394c2.30365 2.3036194 3.597824 5.4280396 3.597824 8.685883l0 49.13336c0 6.7841187 -5.499611 12.283722 -12.283714 12.283722l-49.13337 0c-6.7841034 0 -12.283707 -5.4996033 -12.283707 -12.283722z" fill-rule="evenodd"/><path stroke="#0b5394" stroke-width="4.0" stroke-linejoin="round" stroke-linecap="butt" d="m59.0 420.48712l0 0c0 -6.7841187 5.4996033 -12.283722 12.283707 -12.283722l49.13337 0l0 0c3.257843 0 6.3822556 1.2941895 8.68589 3.5978394c2.30365 2.3036194 3.597824 5.4280396 3.597824 8.685883l0 49.13336c0 6.7841187 -5.499611 12.283722 -12.283714 12.283722l-49.13337 0c-6.7841034 0 -12.283707 -5.4996033 -12.283707 -12.283722z" fill-rule="evenodd"/><path fill="#000000" fill-opacity="0.0" d="m73.362206 415.9672l44.97638 0l0 58.173218l-44.97638 0z" fill-rule="evenodd"/><path fill="#ffffff" d="m99.34658 447.26532l4.484375 1.421875q-1.03125 3.75 -3.4375 5.578125q-2.390625 1.8125 -6.078125 1.8125q-4.5625 0 -7.5 -3.109375q-2.9375 -3.125 -2.9375 -8.53125q0 -5.71875 2.953125 -8.875q2.953125 -3.171875 7.765625 -3.171875q4.203125 0 6.828125 2.484375q1.5625 1.46875 2.34375 4.21875l-4.578125 1.09375q-0.40625 -1.78125 -1.703125 -2.8125q-1.28125 -1.03125 -3.125 -1.03125q-2.546875 0 -4.140625 1.828125q-1.578125 1.828125 -1.578125 5.921875q0 4.34375 1.5625 6.1875q1.5625 1.84375 4.0625 1.84375q1.84375 0 3.171875 -1.171875q1.328125 -1.171875 1.90625 -3.6875z" fill-rule="nonzero"/><path fill="#0b5394" d="m59.0 260.5173l0 0c0 -6.7841034 5.4996033 -12.283707 12.283707 -12.283707l49.13337 0l0 0c3.257843 0 6.3822556 1.2941742 8.68589 3.5978088c2.30365 2.30365 3.597824 5.428055 3.597824 8.685898l0 49.13336c0 6.7841187 -5.499611 12.283722 -12.283714 12.283722l-49.13337 0c-6.7841034 0 -12.283707 -5.4996033 -12.283707 -12.283722z" fill-rule="evenodd"/><path stroke="#0b5394" stroke-width="4.0" stroke-linejoin="round" stroke-linecap="butt" d="m59.0 260.5173l0 0c0 -6.7841034 5.4996033 -12.283707 12.283707 -12.283707l49.13337 0l0 0c3.257843 0 6.3822556 1.2941742 8.68589 3.5978088c2.30365 2.30365 3.597824 5.428055 3.597824 8.685898l0 49.13336c0 6.7841187 -5.499611 12.283722 -12.283714 12.283722l-49.13337 0c-6.7841034 0 -12.283707 -5.4996033 -12.283707 -12.283722z" fill-rule="evenodd"/><path fill="#000000" fill-opacity="0.0" d="m73.362206 255.99738l44.97638 0l0 58.173218l-44.97638 0z" fill-rule="evenodd"/><path fill="#ffffff" d="m84.674706 272.81113l8.453125 0q2.859375 0 4.359375 0.4375q2.015625 0.59375 3.453125 2.109375q1.4375 1.515625 2.1875 3.71875q0.75 2.1875 0.75 5.40625q0 2.828125 -0.703125 4.875q-0.859375 2.5 -2.453125 4.046875q-1.203125 1.171875 -3.25 1.828125q-1.53125 0.484375 -4.09375 0.484375l-8.703125 0l0 -22.90625zm4.625 3.875l0 15.171875l3.453125 0q1.9375 0 2.796875 -0.21875q1.125 -0.28125 1.859375 -0.953125q0.75 -0.671875 1.21875 -2.203125q0.46875 -1.546875 0.46875 -4.203125q0 -2.65625 -0.46875 -4.078125q-0.46875 -1.421875 -1.3125 -2.21875q-0.84375 -0.796875 -2.140625 -1.078125q-0.96875 -0.21875 -3.796875 -0.21875l-2.078125 0z" fill-rule="nonzero"/><path fill="#0b5394" d="m59.0 340.68265l0 0c0 -6.784088 5.4996033 -12.283691 12.283707 -12.283691l49.13337 0l0 0c3.257843 0 6.3822556 1.2941589 8.68589 3.5978088c2.30365 2.30365 3.597824 5.4280396 3.597824 8.685883l0 49.133392c0 6.784088 -5.499611 12.283691 -12.283714 12.283691l-49.13337 0c-6.7841034 0 -12.283707 -5.4996033 -12.283707 -12.283691z" fill-rule="evenodd"/><path stroke="#0b5394" stroke-width="4.0" stroke-linejoin="round" stroke-linecap="butt" d="m59.0 340.68265l0 0c0 -6.784088 5.4996033 -12.283691 12.283707 -12.283691l49.13337 0l0 0c3.257843 0 6.3822556 1.2941589 8.68589 3.5978088c2.30365 2.30365 3.597824 5.4280396 3.597824 8.685883l0 49.133392c0 6.784088 -5.499611 12.283691 -12.283714 12.283691l-49.13337 0c-6.7841034 0 -12.283707 -5.4996033 -12.283707 -12.283691z" fill-rule="evenodd"/><path fill="#000000" fill-opacity="0.0" d="m73.362206 336.16272l44.97638 0l0 58.17325l-44.97638 0z" fill-rule="evenodd"/><path fill="#ffffff" d="m105.34658 375.88272l-5.03125 0l-2.0 -5.203125l-9.15625 0l-1.890625 5.203125l-4.90625 0l8.921875 -22.90625l4.890625 0l9.171875 22.90625zm-8.515625 -9.0625l-3.15625 -8.5l-3.09375 8.5l6.25 0z" fill-rule="nonzero"/></g></svg>